<svg width="193" height="40" viewBox="0 0 193 40" fill="none" xmlns="http://www.w3.org/2000/svg">
<path d="M0 8C0 3.58172 3.58172 0 8 0H185C189.418 0 193 3.58172 193 8V32C193 36.4183 189.418 40 185 40H8C3.58173 40 0 36.4183 0 32V8Z" fill="#0384FF"/>
<g clip-path="url(#clip0_2_826)">
<path fill-rule="evenodd" clip-rule="evenodd" d="M16.5 19.7C16.5 14.1275 20.8675 10 26.5 10C32.1325 10 36.5 14.13 36.5 19.7025C36.5 25.275 32.1325 29.4025 26.5 29.4025C25.4875 29.4025 24.5175 29.2675 23.605 29.0175C23.4275 28.97 23.2375 28.9825 23.07 29.0575L21.085 29.9325C20.9651 29.9854 20.8341 30.008 20.7034 29.9984C20.5727 29.9888 20.4464 29.9472 20.3356 29.8773C20.2247 29.8075 20.1327 29.7114 20.0677 29.5977C20.0026 29.484 19.9665 29.356 19.9625 29.225L19.9075 27.445C19.9025 27.225 19.8025 27.02 19.64 26.875C17.695 25.135 16.5 22.615 16.5 19.7ZM23.4325 17.8776L20.495 22.5376C20.2125 22.9851 20.7625 23.4876 21.1825 23.1676L24.3375 20.7726C24.4413 20.6937 24.568 20.6508 24.6983 20.6504C24.8287 20.6499 24.9557 20.692 25.06 20.7701L27.3975 22.5226C27.5633 22.6471 27.7531 22.7359 27.955 22.7833C28.1568 22.8308 28.3663 22.8359 28.5702 22.7983C28.7741 22.7607 28.968 22.6813 29.1397 22.565C29.3113 22.4487 29.457 22.298 29.5675 22.1226L32.5075 17.4651C32.7875 17.0176 32.2375 16.5126 31.8175 16.8326L28.6625 19.2276C28.5587 19.3064 28.432 19.3493 28.3017 19.3498C28.1713 19.3502 28.0444 19.3082 27.94 19.2301L25.6025 17.4776C25.4367 17.3531 25.2469 17.2643 25.0451 17.2168C24.8432 17.1694 24.6337 17.1643 24.4298 17.2018C24.2259 17.2394 24.032 17.3189 23.8603 17.4352C23.6887 17.5515 23.543 17.7021 23.4325 17.8776Z" fill="white"/>
</g>
<path d="M51.6641 21.835H52.9766C52.9082 22.4639 52.7282 23.0267 52.4365 23.5234C52.1449 24.0202 51.7324 24.4144 51.1992 24.7061C50.666 24.9932 50.0007 25.1367 49.2031 25.1367C48.6198 25.1367 48.0889 25.0273 47.6104 24.8086C47.1364 24.5898 46.7285 24.2799 46.3867 23.8789C46.0449 23.4733 45.7806 22.988 45.5938 22.4229C45.4115 21.8532 45.3203 21.2197 45.3203 20.5225V19.5312C45.3203 18.834 45.4115 18.2028 45.5938 17.6377C45.7806 17.068 46.0472 16.5804 46.3936 16.1748C46.7445 15.7692 47.166 15.457 47.6582 15.2383C48.1504 15.0195 48.7041 14.9102 49.3193 14.9102C50.0713 14.9102 50.707 15.0514 51.2266 15.334C51.7461 15.6165 52.1494 16.0085 52.4365 16.5098C52.7282 17.0065 52.9082 17.583 52.9766 18.2393H51.6641C51.6003 17.7744 51.4818 17.3757 51.3086 17.043C51.1354 16.7057 50.8893 16.446 50.5703 16.2637C50.2513 16.0814 49.8343 15.9902 49.3193 15.9902C48.8773 15.9902 48.4876 16.0745 48.1504 16.2432C47.8177 16.4118 47.5374 16.651 47.3096 16.9609C47.0863 17.2708 46.9176 17.6423 46.8037 18.0752C46.6898 18.5081 46.6328 18.9889 46.6328 19.5176V20.5225C46.6328 21.0101 46.6829 21.4681 46.7832 21.8965C46.888 22.3249 47.0452 22.7008 47.2549 23.0244C47.4645 23.348 47.7311 23.6032 48.0547 23.79C48.3783 23.9723 48.7611 24.0635 49.2031 24.0635C49.7637 24.0635 50.2103 23.9746 50.543 23.7969C50.8757 23.6191 51.1263 23.3639 51.2949 23.0312C51.4681 22.6986 51.5911 22.2998 51.6641 21.835ZM55.8477 14.5V25H54.583V14.5H55.8477ZM55.5469 21.0215L55.0205 21.001C55.0251 20.4951 55.1003 20.028 55.2461 19.5996C55.3919 19.1667 55.597 18.7907 55.8613 18.4717C56.1257 18.1527 56.4401 17.9066 56.8047 17.7334C57.1738 17.5557 57.5817 17.4668 58.0283 17.4668C58.3929 17.4668 58.721 17.5169 59.0127 17.6172C59.3044 17.7129 59.5527 17.8678 59.7578 18.082C59.9674 18.2962 60.127 18.5742 60.2363 18.916C60.3457 19.2533 60.4004 19.6657 60.4004 20.1533V25H59.1289V20.1396C59.1289 19.7523 59.0719 19.4424 58.958 19.21C58.8441 18.973 58.6777 18.8021 58.459 18.6973C58.2402 18.5879 57.9714 18.5332 57.6523 18.5332C57.3379 18.5332 57.0508 18.5993 56.791 18.7314C56.5358 18.8636 56.3148 19.0459 56.1279 19.2783C55.9456 19.5107 55.8021 19.7773 55.6973 20.0781C55.597 20.3743 55.5469 20.6888 55.5469 21.0215ZM66.6553 23.7354V19.9277C66.6553 19.6361 66.596 19.3831 66.4775 19.1689C66.3636 18.9502 66.1904 18.7816 65.958 18.6631C65.7256 18.5446 65.4385 18.4854 65.0967 18.4854C64.7777 18.4854 64.4974 18.54 64.2559 18.6494C64.0189 18.7588 63.832 18.9023 63.6953 19.0801C63.5632 19.2578 63.4971 19.4492 63.4971 19.6543H62.2324C62.2324 19.39 62.3008 19.1279 62.4375 18.8682C62.5742 18.6084 62.7702 18.3737 63.0254 18.1641C63.2852 17.9499 63.5951 17.7812 63.9551 17.6582C64.3197 17.5306 64.7253 17.4668 65.1719 17.4668C65.7096 17.4668 66.1836 17.5579 66.5938 17.7402C67.0085 17.9225 67.332 18.1982 67.5645 18.5674C67.8014 18.932 67.9199 19.39 67.9199 19.9414V23.3867C67.9199 23.6328 67.9404 23.8949 67.9814 24.1729C68.027 24.4508 68.0931 24.6901 68.1797 24.8906V25H66.8604C66.7965 24.8542 66.7464 24.6605 66.71 24.4189C66.6735 24.1729 66.6553 23.945 66.6553 23.7354ZM66.874 20.5156L66.8877 21.4043H65.6094C65.2493 21.4043 64.9281 21.4339 64.6455 21.4932C64.363 21.5479 64.126 21.6322 63.9346 21.7461C63.7432 21.86 63.5973 22.0036 63.4971 22.1768C63.3968 22.3454 63.3467 22.5436 63.3467 22.7715C63.3467 23.0039 63.3991 23.2158 63.5039 23.4072C63.6087 23.5986 63.766 23.7513 63.9756 23.8652C64.1898 23.9746 64.4518 24.0293 64.7617 24.0293C65.1491 24.0293 65.4909 23.9473 65.7871 23.7832C66.0833 23.6191 66.318 23.4186 66.4912 23.1816C66.6689 22.9447 66.7646 22.7145 66.7783 22.4912L67.3184 23.0996C67.2865 23.291 67.1999 23.5029 67.0586 23.7354C66.9173 23.9678 66.7282 24.1911 66.4912 24.4053C66.2588 24.6149 65.9808 24.7904 65.6572 24.9316C65.3382 25.0684 64.9782 25.1367 64.5771 25.1367C64.0758 25.1367 63.6361 25.0387 63.2578 24.8428C62.8841 24.6468 62.5924 24.3848 62.3828 24.0566C62.1777 23.724 62.0752 23.3525 62.0752 22.9424C62.0752 22.5459 62.1527 22.1973 62.3076 21.8965C62.4626 21.5911 62.6859 21.3382 62.9775 21.1377C63.2692 20.9326 63.6201 20.7777 64.0303 20.6729C64.4404 20.568 64.8984 20.5156 65.4043 20.5156H66.874ZM73.0059 17.6035V18.5742H69.0068V17.6035H73.0059ZM70.3604 15.8057H71.625V23.168C71.625 23.4186 71.6637 23.6077 71.7412 23.7354C71.8187 23.863 71.9189 23.9473 72.042 23.9883C72.165 24.0293 72.2972 24.0498 72.4385 24.0498C72.5433 24.0498 72.6527 24.0407 72.7666 24.0225C72.8851 23.9997 72.974 23.9814 73.0332 23.9678L73.04 25C72.9398 25.0319 72.8076 25.0615 72.6436 25.0889C72.484 25.1208 72.2904 25.1367 72.0625 25.1367C71.7526 25.1367 71.4678 25.0752 71.208 24.9521C70.9482 24.8291 70.7409 24.624 70.5859 24.3369C70.4355 24.0452 70.3604 23.6533 70.3604 23.1611V15.8057ZM79.835 23.6875L81.7354 17.6035H82.5693L82.4053 18.8135L80.4707 25H79.6572L79.835 23.6875ZM78.5566 17.6035L80.1768 23.7559L80.293 25H79.4385L77.292 17.6035H78.5566ZM84.3877 23.708L85.9326 17.6035H87.1904L85.0439 25H84.1963L84.3877 23.708ZM82.7539 17.6035L84.6133 23.585L84.8252 25H84.0186L82.0293 18.7998L81.8652 17.6035H82.7539ZM89.8633 17.6035V25H88.5918V17.6035H89.8633ZM88.4961 15.6416C88.4961 15.4365 88.5576 15.2633 88.6807 15.1221C88.8083 14.9808 88.9951 14.9102 89.2412 14.9102C89.4827 14.9102 89.6673 14.9808 89.7949 15.1221C89.9271 15.2633 89.9932 15.4365 89.9932 15.6416C89.9932 15.8376 89.9271 16.0062 89.7949 16.1475C89.6673 16.2842 89.4827 16.3525 89.2412 16.3525C88.9951 16.3525 88.8083 16.2842 88.6807 16.1475C88.5576 16.0062 88.4961 15.8376 88.4961 15.6416ZM94.9902 17.6035V18.5742H90.9912V17.6035H94.9902ZM92.3447 15.8057H93.6094V23.168C93.6094 23.4186 93.6481 23.6077 93.7256 23.7354C93.8031 23.863 93.9033 23.9473 94.0264 23.9883C94.1494 24.0293 94.2816 24.0498 94.4229 24.0498C94.5277 24.0498 94.637 24.0407 94.751 24.0225C94.8695 23.9997 94.9583 23.9814 95.0176 23.9678L95.0244 25C94.9242 25.0319 94.792 25.0615 94.6279 25.0889C94.4684 25.1208 94.2747 25.1367 94.0469 25.1367C93.737 25.1367 93.4521 25.0752 93.1924 24.9521C92.9326 24.8291 92.7253 24.624 92.5703 24.3369C92.4199 24.0452 92.3447 23.6533 92.3447 23.1611V15.8057ZM97.7383 14.5V25H96.4736V14.5H97.7383ZM97.4375 21.0215L96.9111 21.001C96.9157 20.4951 96.9909 20.028 97.1367 19.5996C97.2826 19.1667 97.4876 18.7907 97.752 18.4717C98.0163 18.1527 98.3307 17.9066 98.6953 17.7334C99.0645 17.5557 99.4723 17.4668 99.9189 17.4668C100.284 17.4668 100.612 17.5169 100.903 17.6172C101.195 17.7129 101.443 17.8678 101.648 18.082C101.858 18.2962 102.018 18.5742 102.127 18.916C102.236 19.2533 102.291 19.6657 102.291 20.1533V25H101.02V20.1396C101.02 19.7523 100.963 19.4424 100.849 19.21C100.735 18.973 100.568 18.8021 100.35 18.6973C100.131 18.5879 99.862 18.5332 99.543 18.5332C99.2285 18.5332 98.9414 18.5993 98.6816 18.7314C98.4264 18.8636 98.2054 19.0459 98.0186 19.2783C97.8363 19.5107 97.6927 19.7773 97.5879 20.0781C97.4876 20.3743 97.4375 20.6888 97.4375 21.0215ZM108.266 15.0469H109.544L112.805 23.1611L116.059 15.0469H117.344L113.297 25H112.299L108.266 15.0469ZM107.849 15.0469H108.977L109.161 21.1172V25H107.849V15.0469ZM116.626 15.0469H117.754V25H116.441V21.1172L116.626 15.0469ZM122.949 25.1367C122.434 25.1367 121.967 25.0501 121.548 24.877C121.133 24.6992 120.775 24.4508 120.475 24.1318C120.178 23.8128 119.951 23.4346 119.791 22.9971C119.632 22.5596 119.552 22.0811 119.552 21.5615V21.2744C119.552 20.6729 119.641 20.1374 119.818 19.668C119.996 19.194 120.238 18.793 120.543 18.4648C120.848 18.1367 121.195 17.8883 121.582 17.7197C121.969 17.5511 122.37 17.4668 122.785 17.4668C123.314 17.4668 123.77 17.5579 124.152 17.7402C124.54 17.9225 124.856 18.1777 125.103 18.5059C125.349 18.8294 125.531 19.2122 125.649 19.6543C125.768 20.0918 125.827 20.5703 125.827 21.0898V21.6572H120.304V20.625H124.562V20.5293C124.544 20.2012 124.476 19.8822 124.357 19.5723C124.243 19.2624 124.061 19.0072 123.811 18.8066C123.56 18.6061 123.218 18.5059 122.785 18.5059C122.498 18.5059 122.234 18.5674 121.992 18.6904C121.751 18.8089 121.543 18.9867 121.37 19.2236C121.197 19.4606 121.062 19.75 120.967 20.0918C120.871 20.4336 120.823 20.8278 120.823 21.2744V21.5615C120.823 21.9124 120.871 22.2428 120.967 22.5527C121.067 22.8581 121.211 23.127 121.397 23.3594C121.589 23.5918 121.819 23.7741 122.088 23.9062C122.361 24.0384 122.671 24.1045 123.018 24.1045C123.464 24.1045 123.842 24.0133 124.152 23.8311C124.462 23.6488 124.733 23.4049 124.966 23.0996L125.731 23.708C125.572 23.9495 125.369 24.1797 125.123 24.3984C124.877 24.6172 124.574 24.7949 124.214 24.9316C123.858 25.0684 123.437 25.1367 122.949 25.1367ZM131.61 23.0381C131.61 22.8558 131.569 22.6872 131.487 22.5322C131.41 22.3727 131.248 22.2292 131.002 22.1016C130.76 21.9694 130.396 21.8555 129.908 21.7598C129.498 21.6732 129.127 21.5706 128.794 21.4521C128.466 21.3337 128.186 21.1901 127.953 21.0215C127.725 20.8529 127.55 20.6546 127.427 20.4268C127.304 20.1989 127.242 19.9323 127.242 19.627C127.242 19.3353 127.306 19.0596 127.434 18.7998C127.566 18.54 127.75 18.3099 127.987 18.1094C128.229 17.9089 128.518 17.7516 128.855 17.6377C129.193 17.5238 129.569 17.4668 129.983 17.4668C130.576 17.4668 131.082 17.5716 131.501 17.7812C131.92 17.9909 132.242 18.2712 132.465 18.6221C132.688 18.9684 132.8 19.3535 132.8 19.7773H131.535C131.535 19.5723 131.474 19.374 131.351 19.1826C131.232 18.9867 131.057 18.8249 130.824 18.6973C130.596 18.5697 130.316 18.5059 129.983 18.5059C129.632 18.5059 129.348 18.5605 129.129 18.6699C128.915 18.7747 128.757 18.9092 128.657 19.0732C128.562 19.2373 128.514 19.4105 128.514 19.5928C128.514 19.7295 128.536 19.8525 128.582 19.9619C128.632 20.0667 128.719 20.1647 128.842 20.2559C128.965 20.3424 129.138 20.4245 129.361 20.502C129.585 20.5794 129.869 20.6569 130.216 20.7344C130.822 20.8711 131.321 21.0352 131.713 21.2266C132.105 21.418 132.396 21.6527 132.588 21.9307C132.779 22.2087 132.875 22.5459 132.875 22.9424C132.875 23.266 132.807 23.5622 132.67 23.8311C132.538 24.0999 132.344 24.3324 132.089 24.5283C131.838 24.7197 131.537 24.8701 131.187 24.9795C130.84 25.0843 130.451 25.1367 130.018 25.1367C129.366 25.1367 128.814 25.0205 128.363 24.7881C127.912 24.5557 127.57 24.2549 127.338 23.8857C127.105 23.5166 126.989 23.127 126.989 22.7168H128.261C128.279 23.0632 128.379 23.3389 128.562 23.5439C128.744 23.7445 128.967 23.888 129.231 23.9746C129.496 24.0566 129.758 24.0977 130.018 24.0977C130.364 24.0977 130.653 24.0521 130.886 23.9609C131.123 23.8698 131.303 23.7445 131.426 23.585C131.549 23.4255 131.61 23.2432 131.61 23.0381ZM138.843 23.0381C138.843 22.8558 138.802 22.6872 138.72 22.5322C138.642 22.3727 138.48 22.2292 138.234 22.1016C137.993 21.9694 137.628 21.8555 137.141 21.7598C136.73 21.6732 136.359 21.5706 136.026 21.4521C135.698 21.3337 135.418 21.1901 135.186 21.0215C134.958 20.8529 134.782 20.6546 134.659 20.4268C134.536 20.1989 134.475 19.9323 134.475 19.627C134.475 19.3353 134.538 19.0596 134.666 18.7998C134.798 18.54 134.983 18.3099 135.22 18.1094C135.461 17.9089 135.751 17.7516 136.088 17.6377C136.425 17.5238 136.801 17.4668 137.216 17.4668C137.808 17.4668 138.314 17.5716 138.733 17.7812C139.153 17.9909 139.474 18.2712 139.697 18.6221C139.921 18.9684 140.032 19.3535 140.032 19.7773H138.768C138.768 19.5723 138.706 19.374 138.583 19.1826C138.465 18.9867 138.289 18.8249 138.057 18.6973C137.829 18.5697 137.549 18.5059 137.216 18.5059C136.865 18.5059 136.58 18.5605 136.361 18.6699C136.147 18.7747 135.99 18.9092 135.89 19.0732C135.794 19.2373 135.746 19.4105 135.746 19.5928C135.746 19.7295 135.769 19.8525 135.814 19.9619C135.865 20.0667 135.951 20.1647 136.074 20.2559C136.197 20.3424 136.37 20.4245 136.594 20.502C136.817 20.5794 137.102 20.6569 137.448 20.7344C138.054 20.8711 138.553 21.0352 138.945 21.2266C139.337 21.418 139.629 21.6527 139.82 21.9307C140.012 22.2087 140.107 22.5459 140.107 22.9424C140.107 23.266 140.039 23.5622 139.902 23.8311C139.77 24.0999 139.576 24.3324 139.321 24.5283C139.071 24.7197 138.77 24.8701 138.419 24.9795C138.073 25.0843 137.683 25.1367 137.25 25.1367C136.598 25.1367 136.047 25.0205 135.596 24.7881C135.145 24.5557 134.803 24.2549 134.57 23.8857C134.338 23.5166 134.222 23.127 134.222 22.7168H135.493C135.511 23.0632 135.612 23.3389 135.794 23.5439C135.976 23.7445 136.2 23.888 136.464 23.9746C136.728 24.0566 136.99 24.0977 137.25 24.0977C137.596 24.0977 137.886 24.0521 138.118 23.9609C138.355 23.8698 138.535 23.7445 138.658 23.585C138.781 23.4255 138.843 23.2432 138.843 23.0381ZM146.13 23.7354V19.9277C146.13 19.6361 146.071 19.3831 145.952 19.1689C145.838 18.9502 145.665 18.7816 145.433 18.6631C145.2 18.5446 144.913 18.4854 144.571 18.4854C144.252 18.4854 143.972 18.54 143.73 18.6494C143.493 18.7588 143.307 18.9023 143.17 19.0801C143.038 19.2578 142.972 19.4492 142.972 19.6543H141.707C141.707 19.39 141.775 19.1279 141.912 18.8682C142.049 18.6084 142.245 18.3737 142.5 18.1641C142.76 17.9499 143.07 17.7812 143.43 17.6582C143.794 17.5306 144.2 17.4668 144.646 17.4668C145.184 17.4668 145.658 17.5579 146.068 17.7402C146.483 17.9225 146.807 18.1982 147.039 18.5674C147.276 18.932 147.395 19.39 147.395 19.9414V23.3867C147.395 23.6328 147.415 23.8949 147.456 24.1729C147.502 24.4508 147.568 24.6901 147.654 24.8906V25H146.335C146.271 24.8542 146.221 24.6605 146.185 24.4189C146.148 24.1729 146.13 23.945 146.13 23.7354ZM146.349 20.5156L146.362 21.4043H145.084C144.724 21.4043 144.403 21.4339 144.12 21.4932C143.838 21.5479 143.601 21.6322 143.409 21.7461C143.218 21.86 143.072 22.0036 142.972 22.1768C142.871 22.3454 142.821 22.5436 142.821 22.7715C142.821 23.0039 142.874 23.2158 142.979 23.4072C143.083 23.5986 143.241 23.7513 143.45 23.8652C143.664 23.9746 143.926 24.0293 144.236 24.0293C144.624 24.0293 144.965 23.9473 145.262 23.7832C145.558 23.6191 145.793 23.4186 145.966 23.1816C146.144 22.9447 146.239 22.7145 146.253 22.4912L146.793 23.0996C146.761 23.291 146.674 23.5029 146.533 23.7354C146.392 23.9678 146.203 24.1911 145.966 24.4053C145.733 24.6149 145.455 24.7904 145.132 24.9316C144.813 25.0684 144.453 25.1367 144.052 25.1367C143.55 25.1367 143.111 25.0387 142.732 24.8428C142.359 24.6468 142.067 24.3848 141.857 24.0566C141.652 23.724 141.55 23.3525 141.55 22.9424C141.55 22.5459 141.627 22.1973 141.782 21.8965C141.937 21.5911 142.16 21.3382 142.452 21.1377C142.744 20.9326 143.095 20.7777 143.505 20.6729C143.915 20.568 144.373 20.5156 144.879 20.5156H146.349ZM150.648 19.1826V25H149.384V17.6035H150.58L150.648 19.1826ZM150.348 21.0215L149.821 21.001C149.826 20.4951 149.901 20.028 150.047 19.5996C150.193 19.1667 150.398 18.7907 150.662 18.4717C150.926 18.1527 151.241 17.9066 151.605 17.7334C151.975 17.5557 152.382 17.4668 152.829 17.4668C153.194 17.4668 153.522 17.5169 153.813 17.6172C154.105 17.7129 154.354 17.8678 154.559 18.082C154.768 18.2962 154.928 18.5742 155.037 18.916C155.146 19.2533 155.201 19.6657 155.201 20.1533V25H153.93V20.1396C153.93 19.7523 153.873 19.4424 153.759 19.21C153.645 18.973 153.479 18.8021 153.26 18.6973C153.041 18.5879 152.772 18.5332 152.453 18.5332C152.139 18.5332 151.852 18.5993 151.592 18.7314C151.337 18.8636 151.116 19.0459 150.929 19.2783C150.746 19.5107 150.603 19.7773 150.498 20.0781C150.398 20.3743 150.348 20.6888 150.348 21.0215ZM161.914 17.6035H163.062V24.8428C163.062 25.4945 162.93 26.0505 162.666 26.5107C162.402 26.971 162.033 27.3197 161.559 27.5566C161.089 27.7982 160.547 27.9189 159.932 27.9189C159.676 27.9189 159.376 27.8779 159.029 27.7959C158.688 27.7184 158.35 27.584 158.018 27.3926C157.689 27.2057 157.414 26.9528 157.19 26.6338L157.854 25.8818C158.163 26.2555 158.487 26.5153 158.824 26.6611C159.166 26.807 159.503 26.8799 159.836 26.8799C160.237 26.8799 160.583 26.8047 160.875 26.6543C161.167 26.5039 161.392 26.2806 161.552 25.9844C161.716 25.6927 161.798 25.3327 161.798 24.9043V19.2305L161.914 17.6035ZM156.821 21.3838V21.2402C156.821 20.6751 156.887 20.1624 157.02 19.7021C157.156 19.2373 157.35 18.8385 157.601 18.5059C157.856 18.1732 158.163 17.918 158.523 17.7402C158.883 17.5579 159.289 17.4668 159.74 17.4668C160.205 17.4668 160.611 17.5488 160.957 17.7129C161.308 17.8724 161.604 18.1071 161.846 18.417C162.092 18.7223 162.285 19.0915 162.427 19.5244C162.568 19.9574 162.666 20.4473 162.721 20.9941V21.623C162.671 22.1654 162.573 22.653 162.427 23.0859C162.285 23.5189 162.092 23.888 161.846 24.1934C161.604 24.4987 161.308 24.7334 160.957 24.8975C160.606 25.057 160.196 25.1367 159.727 25.1367C159.285 25.1367 158.883 25.0433 158.523 24.8564C158.168 24.6696 157.863 24.4076 157.607 24.0703C157.352 23.7331 157.156 23.3366 157.02 22.8809C156.887 22.4206 156.821 21.9215 156.821 21.3838ZM158.086 21.2402V21.3838C158.086 21.7529 158.122 22.0993 158.195 22.4229C158.273 22.7464 158.389 23.0312 158.544 23.2773C158.703 23.5234 158.906 23.7171 159.152 23.8584C159.398 23.9951 159.692 24.0635 160.034 24.0635C160.453 24.0635 160.8 23.9746 161.073 23.7969C161.347 23.6191 161.563 23.3844 161.723 23.0928C161.887 22.8011 162.014 22.4844 162.105 22.1426V20.4951C162.055 20.2445 161.978 20.0029 161.873 19.7705C161.773 19.5335 161.641 19.3239 161.477 19.1416C161.317 18.9548 161.119 18.8066 160.882 18.6973C160.645 18.5879 160.367 18.5332 160.048 18.5332C159.701 18.5332 159.403 18.6061 159.152 18.752C158.906 18.8932 158.703 19.0892 158.544 19.3398C158.389 19.5859 158.273 19.873 158.195 20.2012C158.122 20.5247 158.086 20.8711 158.086 21.2402ZM168.053 25.1367C167.538 25.1367 167.071 25.0501 166.651 24.877C166.237 24.6992 165.879 24.4508 165.578 24.1318C165.282 23.8128 165.054 23.4346 164.895 22.9971C164.735 22.5596 164.655 22.0811 164.655 21.5615V21.2744C164.655 20.6729 164.744 20.1374 164.922 19.668C165.1 19.194 165.341 18.793 165.646 18.4648C165.952 18.1367 166.298 17.8883 166.686 17.7197C167.073 17.5511 167.474 17.4668 167.889 17.4668C168.417 17.4668 168.873 17.5579 169.256 17.7402C169.643 17.9225 169.96 18.1777 170.206 18.5059C170.452 18.8294 170.634 19.2122 170.753 19.6543C170.871 20.0918 170.931 20.5703 170.931 21.0898V21.6572H165.407V20.625H169.666V20.5293C169.648 20.2012 169.579 19.8822 169.461 19.5723C169.347 19.2624 169.165 19.0072 168.914 18.8066C168.663 18.6061 168.322 18.5059 167.889 18.5059C167.602 18.5059 167.337 18.5674 167.096 18.6904C166.854 18.8089 166.647 18.9867 166.474 19.2236C166.3 19.4606 166.166 19.75 166.07 20.0918C165.975 20.4336 165.927 20.8278 165.927 21.2744V21.5615C165.927 21.9124 165.975 22.2428 166.07 22.5527C166.171 22.8581 166.314 23.127 166.501 23.3594C166.692 23.5918 166.923 23.7741 167.191 23.9062C167.465 24.0384 167.775 24.1045 168.121 24.1045C168.568 24.1045 168.946 24.0133 169.256 23.8311C169.566 23.6488 169.837 23.4049 170.069 23.0996L170.835 23.708C170.675 23.9495 170.473 24.1797 170.227 24.3984C169.98 24.6172 169.677 24.7949 169.317 24.9316C168.962 25.0684 168.54 25.1367 168.053 25.1367ZM173.672 18.7656V25H172.407V17.6035H173.638L173.672 18.7656ZM175.982 17.5625L175.976 18.7383C175.871 18.7155 175.771 18.7018 175.675 18.6973C175.584 18.6882 175.479 18.6836 175.36 18.6836C175.069 18.6836 174.811 18.7292 174.588 18.8203C174.365 18.9115 174.175 19.0391 174.021 19.2031C173.866 19.3672 173.743 19.5632 173.651 19.791C173.565 20.0143 173.508 20.2604 173.48 20.5293L173.125 20.7344C173.125 20.2878 173.168 19.8685 173.255 19.4766C173.346 19.0846 173.485 18.7383 173.672 18.4375C173.859 18.1322 174.096 17.8952 174.383 17.7266C174.674 17.5534 175.021 17.4668 175.422 17.4668C175.513 17.4668 175.618 17.4782 175.736 17.501C175.855 17.5192 175.937 17.5397 175.982 17.5625Z" fill="white"/>
<defs>
<clipPath id="clip0_2_826">
<rect width="20" height="20" fill="white" transform="translate(16.5 10)"/>
</clipPath>
</defs>
</svg>
